<svg xmlns="http://www.w3.org/2000/svg" viewBox="0 0 16 16">
    <path fill="#FFF" d="M12 15h-1v1"/>
    <path fill="#191919" d="M10 15h1v1h-1zM9 15h1v1H9z"/>
    <path fill="#FFF" d="M9 16v-1H8M8 15H7v1"/>
    <path fill="#191919" d="M6 15h1v1H6zM5 15h1v1H5z"/>
    <path fill="#FFF" d="M5 16v-1H4M13 14h-1v1"/>
    <path fill="#191919" d="M11 14h1v1h-1z"/>
    <path fill="#DBA213" d="M10 14h1v1h-1zM9 14h1v1H9z"/>
    <path fill="#351705" d="M8 14h1v1H8zM7 14h1v1H7z"/>
    <path fill="#DBA213" d="M6 14h1v1H6zM5 14h1v1H5z"/>
    <path fill="#191919" d="M4 14h1v1H4z"/>
    <path fill="#FFF" d="M4 15v-1H3M13 13v1"/>
    <path fill="#191919" d="M12 13h1v1h-1z"/>
    <path fill="#DBA213"
          d="M11 13h1v1h-1zM10 13h1v1h-1zM9 13h1v1H9zM8 13h1v1H8zM7 13h1v1H7zM6 13h1v1H6zM5 13h1v1H5zM4 13h1v1H4z"/>
    <path fill="#191919" d="M3 13h1v1H3z"/>
    <path fill="#FFF" d="M3 14v-1M14 12h-1v1"/>
    <path fill="#191919" d="M12 12h1v1h-1z"/>
    <path fill="#DBA213" d="M11 12h1v1h-1zM10 12h1v1h-1zM9 12h1v1H9z"/>
    <path fill="#EAEE57" d="M8 12h1v1H8zM7 12h1v1H7zM6 12h1v1H6zM5 12h1v1H5z"/>
    <path fill="#DBA213" d="M4 12h1v1H4z"/>
    <path fill="#191919" d="M3 12h1v1H3z"/>
    <path fill="#FFF" d="M3 13v-1H2M14 11v1"/>
    <path fill="#191919" d="M13 11h1v1h-1z"/>
    <path fill="#DBA213" d="M12 11h1v1h-1zM11 11h1v1h-1zM10 11h1v1h-1z"/>
    <path fill="#EAEE57" d="M9 11h1v1H9zM8 11h1v1H8zM7 11h1v1H7zM6 11h1v1H6zM5 11h1v1H5zM4 11h1v1H4zM3 11h1v1H3z"/>
    <path fill="#191919" d="M2 11h1v1H2z"/>
    <path fill="#FFF" d="M2 12v-1M14 10v1"/>
    <path fill="#191919" d="M13 10h1v1h-1z"/>
    <path fill="#DBA213" d="M12 10h1v1h-1zM11 10h1v1h-1z"/>
    <path fill="#EAEE57"
          d="M10 10h1v1h-1zM9 10h1v1H9zM8 10h1v1H8zM7 10h1v1H7zM6 10h1v1H6zM5 10h1v1H5zM4 10h1v1H4zM3 10h1v1H3z"/>
    <path fill="#191919" d="M2 10h1v1H2z"/>
    <path fill="#FFF" d="M2 11v-1M14 9v1"/>
    <path fill="#191919" d="M13 9h1v1h-1z"/>
    <path fill="#DBA213" d="M12 9h1v1h-1zM11 9h1v1h-1z"/>
    <path fill="#EAEE57" d="M10 9h1v1h-1zM9 9h1v1H9zM8 9h1v1H8zM7 9h1v1H7zM6 9h1v1H6z"/>
    <path fill="#FFF" d="M5 9h1v1H5zM4 9h1v1H4z"/>
    <path fill="#EAEE57" d="M3 9h1v1H3z"/>
    <path fill="#191919" d="M2 9h1v1H2z"/>
    <path fill="#FFF" d="M2 10V9M14 8v1"/>
    <path fill="#191919" d="M13 8h1v1h-1z"/>
    <path fill="#DBA213" d="M12 8h1v1h-1zM11 8h1v1h-1z"/>
    <path fill="#EAEE57" d="M10 8h1v1h-1zM9 8h1v1H9zM8 8h1v1H8zM7 8h1v1H7zM6 8h1v1H6z"/>
    <path fill="#FFF" d="M5 8h1v1H5zM4 8h1v1H4z"/>
    <path fill="#EAEE57" d="M3 8h1v1H3z"/>
    <path fill="#191919" d="M2 8h1v1H2z"/>
    <path fill="#FFF" d="M2 9V8M13 7v1h1"/>
    <path fill="#191919" d="M12 7h1v1h-1z"/>
    <path fill="#DBA213" d="M11 7h1v1h-1z"/>
    <path fill="#EAEE57" d="M10 7h1v1h-1zM9 7h1v1H9zM8 7h1v1H8zM7 7h1v1H7z"/>
    <path fill="#FFF" d="M6 7h1v1H6zM5 7h1v1H5z"/>
    <path fill="#EAEE57" d="M4 7h1v1H4z"/>
    <path fill="#191919" d="M3 7h1v1H3z"/>
    <path fill="#FFF" d="M2 8h1V7M16 7V6M13 6v1"/>
    <path fill="#191919" d="M12 6h1v1h-1z"/>
    <path fill="#DBA213" d="M11 6h1v1h-1zM10 6h1v1h-1z"/>
    <path fill="#EAEE57" d="M9 6h1v1H9z"/>
    <path fill="#DBA213" d="M8 6h1v1H8z"/>
    <path fill="#EAEE57" d="M7 6h1v1H7zM6 6h1v1H6zM5 6h1v1H5zM4 6h1v1H4z"/>
    <path fill="#191919" d="M3 6h1v1H3z"/>
    <path fill="#FFF" d="M3 7V6M12 5v1h1"/>
    <path fill="#191919" d="M11 5h1v1h-1zM10 5h1v1h-1z"/>
    <path fill="#DBA213" d="M9 5h1v1H9z"/>
    <path fill="#542409" d="M8 5h1v1H8zM7 5h1v1H7z"/>
    <path fill="#EAEE57" d="M6 5h1v1H6z"/>
    <path fill="#191919" d="M5 5h1v1H5zM4 5h1v1H4z"/>
    <path fill="#FFF" d="M3 6h1V5M11 5h1M10 4v1h1"/>
    <path fill="#191919" d="M9 4h1v1H9z"/>
    <path fill="#301504" d="M8 4h1v1H8z"/>
    <path fill="#191919" d="M7 4h1v1H7zM6 4h1v1H6z"/>
    <path fill="#FFF" d="M5 5h1V4M4 5h1M10 3H9v1h1"/>
    <path fill="#191919" d="M8 3h1v1H8z"/>
    <path fill="#FFF" d="M7 4h1V3M6 4h1M10 2v1"/>
    <path fill="#191919" d="M9 2h1v1H9zM8 2h1v1H8z"/>
    <path fill="#FFF" d="M8 3V2M10 1v1"/>
    <path fill="#191919" d="M9 1h1v1H9z"/>
    <path fill="#FFF" d="M8 2h1V1M9 1h1"/>
</svg>