<svg xmlns="http://www.w3.org/2000/svg" viewBox="0 0 16 16">
    <path fill="#161005" d="M10 14h1v1h-1zM7 14h1v1H7zM6 14h1v1H6zM5 14h1v1H5z"/>
    <path fill="#545454" d="M9 13h1v1H9z"/>
    <path fill="#161005" d="M8 13h1v1H8z"/>
    <path fill="#55240F" d="M7 13h1v1H7zM6 13h1v1H6z"/>
    <path fill="#6C351C" d="M5 13h1v1H5z"/>
    <path fill="#161005" d="M4 13h1v1H4zM11 12h1v1h-1zM10 12h1v1h-1z"/>
    <path fill="#7F7F7F" d="M9 12h1v1H9z"/>
    <path fill="#F1F1F1" d="M8 12h1v1H8z"/>
    <path fill="#5C5C5C" d="M7 12h1v1H7z"/>
    <path fill="#999" d="M6 12h1v1H6z"/>
    <path fill="#D6D6D6" d="M5 12h1v1H5z"/>
    <path fill="#6C351C" d="M4 12h1v1H4z"/>
    <path fill="#161005" d="M3 12h1v1H3zM13 11h1v1h-1zM12 11h1v1h-1z"/>
    <path fill="#55240F" d="M11 11h1v1h-1z"/>
    <path fill="#331509" d="M10 11h1v1h-1z"/>
    <path fill="#D5D5D5" d="M9 11h1v1H9z"/>
    <path fill="#7F7F7F" d="M8 11h1v1H8z"/>
    <path fill="#F1F1F1" d="M7 11h1v1H7z"/>
    <path fill="#6E6E6E" d="M6 11h1v1H6z"/>
    <path fill="#B7B7B7" d="M5 11h1v1H5z"/>
    <path fill="#D6D6D6" d="M4 11h1v1H4z"/>
    <path fill="#6C351C" d="M3 11h1v1H3z"/>
    <path fill="#161005" d="M2 11h1v1H2zM15 10h1v1h-1zM14 10h1v1h-1z"/>
    <path fill="#55240F" d="M13 10h1v1h-1zM12 10h1v1h-1z"/>
    <path fill="#B7B7B7" d="M11 10h1v1h-1z"/>
    <path fill="#5C5C5C" d="M10 10h1v1h-1z"/>
    <path fill="#F1F1F1" d="M9 10h1v1H9z"/>
    <path fill="#7F7F7F" d="M8 10h1v1H8z"/>
    <path fill="#D5D5D5" d="M7 10h1v1H7z"/>
    <path fill="#331509" d="M6 10h1v1H6z"/>
    <path fill="#6C351C" d="M5 10h1v1H5z"/>
    <path fill="#B7B7B7" d="M4 10h1v1H4z"/>
    <path fill="#D6D6D6" d="M3 10h1v1H3z"/>
    <path fill="#6C351C" d="M2 10h1v1H2z"/>
    <path fill="#161005" d="M1 10h1v1H1zM15 9h1v1h-1z"/>
    <path fill="#55240F" d="M14 9h1v1h-1z"/>
    <path fill="#999" d="M13 9h1v1h-1z"/>
    <path fill="#B7B7B7" d="M12 9h1v1h-1z"/>
    <path fill="#999" d="M11 9h1v1h-1z"/>
    <path fill="#6E6E6E" d="M10 9h1v1h-1z"/>
    <path fill="#F1F1F1" d="M9 9h1v1H9z"/>
    <path fill="#D5D5D5" d="M8 9h1v1H8z"/>
    <path fill="#7F7F7F" d="M7 9h1v1H7z"/>
    <path fill="#F1F1F1" d="M6 9h1v1H6z"/>
    <path fill="#4A2615" d="M5 9h1v1H5z"/>
    <path fill="#6C351C" d="M4 9h1v1H4z"/>
    <path fill="#B7B7B7" d="M3 9h1v1H3z"/>
    <path fill="#D6D6D6" d="M2 9h1v1H2z"/>
    <path fill="#6C351C" d="M1 9h1v1H1z"/>
    <path fill="#161005" d="M0 9h1v1H0z"/>
    <path fill="#5B5B5B" d="M15 8h1v1h-1z"/>
    <path fill="#999" d="M14 8h1v1h-1z"/>
    <path fill="#B7B7B7" d="M13 8h1v1h-1z"/>
    <path fill="#999" d="M12 8h1v1h-1z"/>
    <path fill="#55240F" d="M11 8h1v1h-1z"/>
    <path fill="#331509" d="M10 8h1v1h-1z"/>
    <path fill="#F1F1F1" d="M9 8h1v1H9z"/>
    <path fill="#CACACA" d="M8 8h1v1H8z"/>
    <path fill="#7F7F7F" d="M7 8h1v1H7z"/>
    <path fill="#D5D5D5" d="M6 8h1v1H6z"/>
    <path fill="#4A2615" d="M5 8h1v1H5z"/>
    <path fill="#7B3F24" d="M4 8h1v1H4z"/>
    <path fill="#6C351C" d="M3 8h1v1H3z"/>
    <path fill="#B7B7B7" d="M2 8h1v1H2z"/>
    <path fill="#6C351C" d="M1 8h1v1H1z"/>
    <path fill="#261B08" d="M0 8h1v1H0z"/>
    <path fill="#5B5B5B" d="M15 7h1v1h-1z"/>
    <path fill="#B7B7B7" d="M14 7h1v1h-1z"/>
    <path fill="#55240F" d="M13 7h1v1h-1zM12 7h1v1h-1z"/>
    <path fill="#7B3F24" d="M11 7h1v1h-1z"/>
    <path fill="#4A2615" d="M10 7h1v1h-1z"/>
    <path fill="#CACACA" d="M9 7h1v1H9z"/>
    <path fill="#F1F1F1" d="M8 7h1v1H8z"/>
    <path fill="#7F7F7F" d="M7 7h1v1H7z"/>
    <path fill="#F1F1F1" d="M6 7h1v1H6z"/>
    <path fill="#CACACA" d="M5 7h1v1H5z"/>
    <path fill="#4A2615" d="M4 7h1v1H4z"/>
    <path fill="#7B3F24" d="M3 7h1v1H3z"/>
    <path fill="#6C351C" d="M2 7h1v1H2zM1 7h1v1H1z"/>
    <path fill="#261B08" d="M0 7h1v1H0z"/>
    <path fill="#161005" d="M15 6h1v1h-1z"/>
    <path fill="#55240F" d="M14 6h1v1h-1z"/>
    <path fill="#7B3F24" d="M13 6h1v1h-1zM12 6h1v1h-1zM11 6h1v1h-1z"/>
    <path fill="#55240F" d="M10 6h1v1h-1z"/>
    <path fill="#4A2615" d="M9 6h1v1H9z"/>
    <path fill="#CACACA" d="M8 6h1v1H8z"/>
    <path fill="#7F7F7F" d="M7 6h1v1H7z"/>
    <path fill="#D5D5D5" d="M6 6h1v1H6z"/>
    <path fill="#F1F1F1" d="M5 6h1v1H5z"/>
    <path fill="#4A2615" d="M4 6h1v1H4z"/>
    <path fill="#7B3F24" d="M3 6h1v1H3zM2 6h1v1H2z"/>
    <path fill="#6C351C" d="M1 6h1v1H1z"/>
    <path fill="#261B08" d="M0 6h1v1H0zM14 5h1v1h-1z"/>
    <path fill="#7B3F24" d="M13 5h1v1h-1zM12 5h1v1h-1z"/>
    <path fill="#55240F" d="M11 5h1v1h-1z"/>
    <path fill="#7B3F24" d="M10 5h1v1h-1z"/>
    <path fill="#4A2615" d="M9 5h1v1H9z"/>
    <path fill="#F1F1F1" d="M8 5h1v1H8z"/>
    <path fill="#D5D5D5" d="M7 5h1v1H7z"/>
    <path fill="#7F7F7F" d="M6 5h1v1H6z"/>
    <path fill="#CACACA" d="M5 5h1v1H5z"/>
    <path fill="#F1F1F1" d="M4 5h1v1H4z"/>
    <path fill="#502C1B" d="M3 5h1v1H3z"/>
    <path fill="#85492D" d="M2 5h1v1H2z"/>
    <path fill="#261B08" d="M1 5h1v1H1zM0 5h1v1H0zM13 4h1v1h-1z"/>
    <path fill="#7B3F24" d="M12 4h1v1h-1zM11 4h1v1h-1z"/>
    <path fill="#55240F" d="M10 4h1v1h-1z"/>
    <path fill="#331509" d="M9 4h1v1H9z"/>
    <path fill="#F1F1F1" d="M8 4h1v1H8z"/>
    <path fill="#D5D5D5" d="M7 4h1v1H7z"/>
    <path fill="#7F7F7F" d="M6 4h1v1H6z"/>
    <path fill="#F1F1F1" d="M5 4h1v1H5z"/>
    <path fill="#D5D5D5" d="M4 4h1v1H4z"/>
    <path fill="#F1F1F1" d="M3 4h1v1H3z"/>
    <path fill="#261B08" d="M2 4h1v1H2zM12 3h1v1h-1z"/>
    <path fill="#7B3F24" d="M11 3h1v1h-1zM10 3h1v1h-1z"/>
    <path fill="#55240F" d="M9 3h1v1H9z"/>
    <path fill="#4A2615" d="M8 3h1v1H8z"/>
    <path fill="#F1F1F1" d="M7 3h1v1H7z"/>
    <path fill="#CACACA" d="M6 3h1v1H6z"/>
    <path fill="#7F7F7F" d="M5 3h1v1H5z"/>
    <path fill="#F1F1F1" d="M4 3h1v1H4z"/>
    <path fill="#D5D5D5" d="M3 3h1v1H3z"/>
    <path fill="#261B08" d="M11 2h1v1h-1z"/>
    <path fill="#85492D" d="M10 2h1v1h-1zM9 2h1v1H9zM8 2h1v1H8z"/>
    <path fill="#261B08" d="M7 2h1v1H7z"/>
    <path fill="#F1F1F1" d="M6 2h1v1H6zM5 2h1v1H5z"/>
    <path fill="#D5D5D5" d="M4 2h1v1H4z"/>
    <path fill="#F1F1F1" d="M3 2h1v1H3z"/>
    <path fill="#261B08" d="M10 1h1v1h-1zM9 1h1v1H9zM8 1h1v1H8z"/>
    <path fill="#CACACA" d="M6 1h1v1H6z"/>
    <path fill="#F1F1F1" d="M5 1h1v1H5zM4 1h1v1H4z"/>
</svg>