<svg xmlns="http://www.w3.org/2000/svg" viewBox="0 0 16 16">
    <path fill="#353535" d="M10 14h1v1h-1zM9 14h1v1H9zM8 14h1v1H8zM7 14h1v1H7zM6 14h1v1H6zM5 14h1v1H5zM11 13h1v1h-1z"/>
    <path fill="#969696" d="M10 13h1v1h-1zM9 13h1v1H9zM8 13h1v1H8z"/>
    <path fill="#D8D8D8" d="M7 13h1v1H7zM6 13h1v1H6z"/>
    <path fill="#969696" d="M5 13h1v1H5z"/>
    <path fill="#515151" d="M4 13h1v1H4z"/>
    <path fill="#353535" d="M11 12h1v1h-1z"/>
    <path fill="#969696" d="M10 12h1v1h-1zM9 12h1v1H9z"/>
    <path fill="#A8A8A8" d="M8 12h1v1H8z"/>
    <path fill="#D8D8D8" d="M7 12h1v1H7zM6 12h1v1H6zM5 12h1v1H5z"/>
    <path fill="#515151" d="M4 12h1v1H4z"/>
    <path fill="#353535" d="M12 11h1v1h-1z"/>
    <path fill="#727272" d="M11 11h1v1h-1z"/>
    <path fill="#CB4627" d="M10 11h1v1h-1z"/>
    <path fill="#969696" d="M9 11h1v1H9z"/>
    <path fill="#A8A8A8" d="M8 11h1v1H8z"/>
    <path fill="#D8D8D8" d="M7 11h1v1H7z"/>
    <path fill="#FFF" d="M6 11h1v1H6z"/>
    <path fill="#D8D8D8" d="M5 11h1v1H5zM4 11h1v1H4z"/>
    <path fill="#515151" d="M3 11h1v1H3z"/>
    <path fill="#353535" d="M12 10h1v1h-1z"/>
    <path fill="#727272" d="M11 10h1v1h-1z"/>
    <path fill="#969696" d="M10 10h1v1h-1zM9 10h1v1H9z"/>
    <path fill="#A8A8A8" d="M8 10h1v1H8z"/>
    <path fill="#D8D8D8" d="M7 10h1v1H7z"/>
    <path fill="#FFF" d="M6 10h1v1H6z"/>
    <path fill="#D8D8D8" d="M5 10h1v1H5zM4 10h1v1H4z"/>
    <path fill="#515151" d="M3 10h1v1H3z"/>
    <path fill="#353535" d="M12 9h1v1h-1z"/>
    <path fill="#727272" d="M11 9h1v1h-1z"/>
    <path fill="#CB4627" d="M10 9h1v1h-1z"/>
    <path fill="#A8A8A8" d="M9 9h1v1H9zM8 9h1v1H8zM7 9h1v1H7z"/>
    <path fill="#D8D8D8" d="M6 9h1v1H6z"/>
    <path fill="#FFF" d="M5 9h1v1H5z"/>
    <path fill="#D8D8D8" d="M4 9h1v1H4z"/>
    <path fill="#515151" d="M3 9h1v1H3z"/>
    <path fill="#353535" d="M13 8h1v1h-1z"/>
    <path fill="#727272" d="M12 8h1v1h-1z"/>
    <path fill="#969696" d="M11 8h1v1h-1z"/>
    <path fill="#E99245" d="M10 8h1v1h-1z"/>
    <path fill="#CACACA" d="M9 8h1v1H9zM8 8h1v1H8zM7 8h1v1H7z"/>
    <path fill="#D85334" d="M6 8h1v1H6z"/>
    <path fill="#FFF" d="M5 8h1v1H5z"/>
    <path fill="#D8D8D8" d="M4 8h1v1H4zM3 8h1v1H3z"/>
    <path fill="#515151" d="M2 8h1v1H2z"/>
    <path fill="#353535" d="M13 7h1v1h-1z"/>
    <path fill="#727272" d="M12 7h1v1h-1z"/>
    <path fill="#CB4627" d="M11 7h1v1h-1z"/>
    <path fill="#EAD762" d="M10 7h1v1h-1z"/>
    <path fill="#353535" d="M9 7h1v1H9zM8 7h1v1H8zM7 7h1v1H7zM6 7h1v1H6z"/>
    <path fill="#E7E7E7" d="M5 7h1v1H5zM4 7h1v1H4z"/>
    <path fill="#D8D8D8" d="M3 7h1v1H3z"/>
    <path fill="#515151" d="M2 7h1v1H2z"/>
    <path fill="#353535" d="M13 6h1v1h-1z"/>
    <path fill="#A9A9A9" d="M12 6h1v1h-1z"/>
    <path fill="#353535" d="M11 6h1v1h-1zM10 6h1v1h-1z"/>
    <path fill="#E38C3F" d="M9 6h1v1H9zM8 6h1v1H8z"/>
    <path fill="#C54021" d="M7 6h1v1H7z"/>
    <path fill="#E2CF5A" d="M6 6h1v1H6z"/>
    <path fill="#353535" d="M5 6h1v1H5zM4 6h1v1H4z"/>
    <path fill="#E7E7E7" d="M3 6h1v1H3z"/>
    <path fill="#515151" d="M2 6h1v1H2z"/>
    <path fill="#353535" d="M13 5h1v1h-1zM12 5h1v1h-1z"/>
    <path fill="#CC4628" d="M11 5h1v1h-1z"/>
    <path fill="#EA9346" d="M10 5h1v1h-1z"/>
    <path fill="#E4D25C" d="M9 5h1v1H9zM8 5h1v1H8z"/>
    <path fill="#E38C3F" d="M7 5h1v1H7z"/>
    <path fill="#E2CF5A" d="M6 5h1v1H6zM5 5h1v1H5z"/>
    <path fill="#DC8638" d="M4 5h1v1H4z"/>
    <path fill="#353535" d="M3 5h1v1H3z"/>
    <path fill="#515151" d="M2 5h1v1H2z"/>
    <path fill="#353535" d="M13 4h1v1h-1z"/>
    <path fill="#BFB67E" d="M12 4h1v1h-1z"/>
    <path fill="#BF967E" d="M11 4h1v1h-1z"/>
    <path fill="#CC4628" d="M10 4h1v1h-1z"/>
    <path fill="#E38C3F" d="M9 4h1v1H9z"/>
    <path fill="#E4D25C" d="M8 4h1v1H8zM7 4h1v1H7z"/>
    <path fill="#E38C3F" d="M6 4h1v1H6z"/>
    <path fill="#C33E1F" d="M5 4h1v1H5z"/>
    <path fill="#956C55" d="M4 4h1v1H4z"/>
    <path fill="#958C55" d="M3 4h1v1H3z"/>
    <path fill="#353535" d="M2 4h1v1H2z"/>
    <path fill="#515151" d="M12 3h1v1h-1zM11 3h1v1h-1z"/>
    <path fill="#BF967E" d="M10 3h1v1h-1z"/>
    <path fill="#AB826B" d="M9 3h1v1H9z"/>
    <path fill="#ABA26B" d="M8 3h1v1H8zM7 3h1v1H7z"/>
    <path fill="#AB826B" d="M6 3h1v1H6z"/>
    <path fill="#A37B63" d="M5 3h1v1H5z"/>
    <path fill="#353535" d="M4 3h1v1H4zM3 3h1v1H3z"/>
    <path fill="#515151" d="M10 2h1v1h-1zM9 2h1v1H9zM8 2h1v1H8z"/>
    <path fill="#353535" d="M7 2h1v1H7zM6 2h1v1H6zM5 2h1v1H5z"/>
</svg>