<svg xmlns="http://www.w3.org/2000/svg" viewBox="0 0 16 16">
    <path fill="#3D1D0B"
          d="M10 14h1v1h-1zM9 14h1v1H9zM8 14h1v1H8zM7 14h1v1H7zM6 14h1v1H6zM5 14h1v1H5zM13 13h1v1h-1zM12 13h1v1h-1zM11 13h1v1h-1z"/>
    <path fill="#97491A" d="M10 13h1v1h-1zM9 13h1v1H9zM8 13h1v1H8zM7 13h1v1H7zM6 13h1v1H6zM5 13h1v1H5z"/>
    <path fill="#3D1D0B" d="M4 13h1v1H4zM3 13h1v1H3zM14 12h1v1h-1z"/>
    <path fill="#97491A" d="M13 12h1v1h-1zM12 12h1v1h-1zM11 12h1v1h-1z"/>
    <path fill="#AF5823" d="M10 12h1v1h-1zM9 12h1v1H9zM8 12h1v1H8zM7 12h1v1H7z"/>
    <path fill="#B85D27" d="M6 12h1v1H6zM5 12h1v1H5z"/>
    <path fill="#97491A" d="M4 12h1v1H4zM3 12h1v1H3z"/>
    <path fill="#3D1D0B" d="M2 12h1v1H2zM1 12h1v1H1zM15 11h1v1h-1z"/>
    <path fill="#97491A" d="M14 11h1v1h-1z"/>
    <path fill="#A75320" d="M13 11h1v1h-1zM12 11h1v1h-1z"/>
    <path fill="#AF5823" d="M11 11h1v1h-1z"/>
    <path fill="#BCBCBC" d="M10 11h1v1h-1z"/>
    <path fill="#A75320" d="M9 11h1v1H9zM8 11h1v1H8zM7 11h1v1H7z"/>
    <path fill="#C2C2C2" d="M6 11h1v1H6z"/>
    <path fill="#A75320" d="M5 11h1v1H5z"/>
    <path fill="#AF5823" d="M4 11h1v1H4z"/>
    <path fill="#B85D27" d="M3 11h1v1H3zM2 11h1v1H2z"/>
    <path fill="#97491A" d="M1 11h1v1H1z"/>
    <path fill="#3D1D0B" d="M0 11h1v1H0zM15 10h1v1h-1z"/>
    <path fill="#97491A" d="M14 10h1v1h-1z"/>
    <path fill="#A75320" d="M13 10h1v1h-1zM12 10h1v1h-1z"/>
    <path fill="#BCBCBC" d="M11 10h1v1h-1zM10 10h1v1h-1zM9 10h1v1H9z"/>
    <path fill="#CECECE" d="M8 10h1v1H8zM7 10h1v1H7zM6 10h1v1H6zM5 10h1v1H5z"/>
    <path fill="#EAE9EB" d="M4 10h1v1H4z"/>
    <path fill="#A75320" d="M3 10h1v1H3zM2 10h1v1H2z"/>
    <path fill="#97491A" d="M1 10h1v1H1z"/>
    <path fill="#3D1D0B" d="M0 10h1v1H0zM15 9h1v1h-1z"/>
    <path fill="#97491A" d="M14 9h1v1h-1z"/>
    <path fill="#A75320" d="M13 9h1v1h-1z"/>
    <path fill="#BCBCBC" d="M12 9h1v1h-1zM11 9h1v1h-1zM10 9h1v1h-1zM9 9h1v1H9z"/>
    <path fill="#CECECE" d="M8 9h1v1H8zM7 9h1v1H7zM6 9h1v1H6z"/>
    <path fill="#EAE9EB" d="M5 9h1v1H5zM4 9h1v1H4zM3 9h1v1H3z"/>
    <path fill="#CECECE" d="M2 9h1v1H2z"/>
    <path fill="#97491A" d="M1 9h1v1H1z"/>
    <path fill="#3D1D0B" d="M0 9h1v1H0zM15 8h1v1h-1z"/>
    <path fill="#BCBCBC" d="M14 8h1v1h-1zM13 8h1v1h-1zM12 8h1v1h-1zM11 8h1v1h-1z"/>
    <path fill="#C2C2C2" d="M10 8h1v1h-1zM9 8h1v1H9zM8 8h1v1H8zM7 8h1v1H7zM6 8h1v1H6zM5 8h1v1H5z"/>
    <path fill="#EAE9EB" d="M4 8h1v1H4zM3 8h1v1H3zM2 8h1v1H2z"/>
    <path fill="#CECECE" d="M1 8h1v1H1z"/>
    <path fill="#3D1D0B" d="M0 8h1v1H0z"/>
    <path fill="#737C7C" d="M15 7h1v1h-1z"/>
    <path fill="#BCBCBC" d="M14 7h1v1h-1zM13 7h1v1h-1z"/>
    <path fill="#C2C2C2" d="M12 7h1v1h-1zM11 7h1v1h-1z"/>
    <path fill="#EAE9EB" d="M10 7h1v1h-1zM9 7h1v1H9z"/>
    <path fill="#EA1D1D" d="M8 7h1v1H8z"/>
    <path fill="#EAE9EB" d="M7 7h1v1H7zM6 7h1v1H6zM5 7h1v1H5z"/>
    <path fill="#C2C2C2" d="M4 7h1v1H4zM3 7h1v1H3z"/>
    <path fill="#EAE9EB" d="M2 7h1v1H2z"/>
    <path fill="#CECECE" d="M1 7h1v1H1z"/>
    <path fill="#737C7C" d="M0 7h1v1H0zM15 6h1v1h-1z"/>
    <path fill="#C2C2C2" d="M14 6h1v1h-1zM13 6h1v1h-1z"/>
    <path fill="#EAE9EB"
          d="M12 6h1v1h-1zM11 6h1v1h-1zM10 6h1v1h-1zM9 6h1v1H9zM8 6h1v1H8zM7 6h1v1H7zM6 6h1v1H6zM5 6h1v1H5z"/>
    <path fill="#EA1D1D" d="M4 6h1v1H4z"/>
    <path fill="#EAE9EB" d="M3 6h1v1H3z"/>
    <path fill="#C2C2C2" d="M2 6h1v1H2zM1 6h1v1H1z"/>
    <path fill="#737C7C" d="M0 6h1v1H0zM15 5h1v1h-1z"/>
    <path fill="#C2C2C2" d="M14 5h1v1h-1z"/>
    <path fill="#EAE9EB" d="M13 5h1v1h-1z"/>
    <path fill="#EA1D1D" d="M12 5h1v1h-1z"/>
    <path fill="#EAE9EB" d="M11 5h1v1h-1zM10 5h1v1h-1zM9 5h1v1H9z"/>
    <path fill="#EA1D1D" d="M8 5h1v1H8z"/>
    <path fill="#EAE9EB" d="M7 5h1v1H7zM6 5h1v1H6zM5 5h1v1H5zM4 5h1v1H4zM3 5h1v1H3zM2 5h1v1H2z"/>
    <path fill="#C2C2C2" d="M1 5h1v1H1z"/>
    <path fill="#737C7C" d="M0 5h1v1H0zM15 4h1v1h-1z"/>
    <path fill="#C2C2C2" d="M14 4h1v1h-1zM13 4h1v1h-1z"/>
    <path fill="#EAE9EB" d="M12 4h1v1h-1zM11 4h1v1h-1z"/>
    <path fill="#EA1D1D" d="M10 4h1v1h-1z"/>
    <path fill="#EAE9EB" d="M9 4h1v1H9zM8 4h1v1H8zM7 4h1v1H7zM6 4h1v1H6zM5 4h1v1H5zM4 4h1v1H4z"/>
    <path fill="#EA1D1D" d="M3 4h1v1H3z"/>
    <path fill="#C2C2C2" d="M2 4h1v1H2zM1 4h1v1H1z"/>
    <path fill="#737C7C" d="M0 4h1v1H0zM14 3h1v1h-1zM13 3h1v1h-1z"/>
    <path fill="#C2C2C2" d="M12 3h1v1h-1zM11 3h1v1h-1z"/>
    <path fill="#EAE9EB" d="M10 3h1v1h-1zM9 3h1v1H9zM8 3h1v1H8zM7 3h1v1H7z"/>
    <path fill="#EA1D1D" d="M6 3h1v1H6z"/>
    <path fill="#EAE9EB" d="M5 3h1v1H5z"/>
    <path fill="#C2C2C2" d="M4 3h1v1H4zM3 3h1v1H3z"/>
    <path fill="#737C7C" d="M2 3h1v1H2zM1 3h1v1H1zM12 2h1v1h-1zM11 2h1v1h-1z"/>
    <path fill="#C2C2C2" d="M10 2h1v1h-1zM9 2h1v1H9zM8 2h1v1H8zM7 2h1v1H7zM6 2h1v1H6zM5 2h1v1H5z"/>
    <path fill="#737C7C"
          d="M4 2h1v1H4zM3 2h1v1H3zM10 1h1v1h-1zM9 1h1v1H9zM8 1h1v1H8zM7 1h1v1H7zM6 1h1v1H6zM5 1h1v1H5z"/>
</svg>