<svg xmlns="http://www.w3.org/2000/svg" viewBox="0 0 16 16">
    <path fill="#33330B" d="M9 15h1v1H9zM8 15h1v1H8zM7 15h1v1H7zM6 15h1v1H6zM11 14h1v1h-1zM10 14h1v1h-1z"/>
    <path fill="#BEBE29" d="M9 14h1v1H9zM8 14h1v1H8zM7 14h1v1H7zM6 14h1v1H6z"/>
    <path fill="#33330B" d="M5 14h1v1H5zM4 14h1v1H4zM12 13h1v1h-1z"/>
    <path fill="#B06C29" d="M11 13h1v1h-1z"/>
    <path fill="#BEBE29" d="M10 13h1v1h-1z"/>
    <path fill="#727218" d="M9 13h1v1H9zM8 13h1v1H8zM7 13h1v1H7zM6 13h1v1H6z"/>
    <path fill="#BEBE29" d="M5 13h1v1H5z"/>
    <path fill="#E1E1E1" d="M4 13h1v1H4z"/>
    <path fill="#33330B" d="M3 13h1v1H3zM13 12h1v1h-1z"/>
    <path fill="#B06C29" d="M12 12h1v1h-1z"/>
    <path fill="#727218" d="M11 12h1v1h-1zM10 12h1v1h-1z"/>
    <path fill="#DEDE90" d="M9 12h1v1H9zM8 12h1v1H8zM7 12h1v1H7zM6 12h1v1H6z"/>
    <path fill="#727218" d="M5 12h1v1H5zM4 12h1v1H4z"/>
    <path fill="#DEDE90" d="M3 12h1v1H3z"/>
    <path fill="#33330B" d="M2 12h1v1H2zM14 11h1v1h-1z"/>
    <path fill="#B06C29" d="M13 11h1v1h-1z"/>
    <path fill="#727218" d="M12 11h1v1h-1z"/>
    <path fill="#DEDE90"
          d="M11 11h1v1h-1zM10 11h1v1h-1zM9 11h1v1H9zM8 11h1v1H8zM7 11h1v1H7zM6 11h1v1H6zM5 11h1v1H5zM4 11h1v1H4z"/>
    <path fill="#727218" d="M3 11h1v1H3z"/>
    <path fill="#DEDE90" d="M2 11h1v1H2z"/>
    <path fill="#33330B" d="M1 11h1v1H1zM14 10h1v1h-1z"/>
    <path fill="#727218" d="M13 10h1v1h-1z"/>
    <path fill="#DEDE90"
          d="M12 10h1v1h-1zM11 10h1v1h-1zM10 10h1v1h-1zM9 10h1v1H9zM8 10h1v1H8zM7 10h1v1H7zM6 10h1v1H6zM5 10h1v1H5zM4 10h1v1H4zM3 10h1v1H3z"/>
    <path fill="#727218" d="M2 10h1v1H2z"/>
    <path fill="#33330B" d="M1 10h1v1H1zM14 9h1v1h-1z"/>
    <path fill="#DEDE90" d="M13 9h1v1h-1zM12 9h1v1h-1z"/>
    <path fill="#E1E1E1" d="M11 9h1v1h-1zM10 9h1v1h-1zM9 9h1v1H9z"/>
    <path fill="#DEDE90" d="M8 9h1v1H8zM7 9h1v1H7z"/>
    <path fill="#E1E1E1" d="M6 9h1v1H6zM5 9h1v1H5zM4 9h1v1H4z"/>
    <path fill="#DEDE90" d="M3 9h1v1H3zM2 9h1v1H2z"/>
    <path fill="#33330B" d="M1 9h1v1H1zM14 8h1v1h-1z"/>
    <path fill="#DEDE90" d="M13 8h1v1h-1z"/>
    <path fill="#E1E1E1" d="M12 8h1v1h-1z"/>
    <path fill="#181616" d="M11 8h1v1h-1zM10 8h1v1h-1zM9 8h1v1H9z"/>
    <path fill="#DEDE90" d="M8 8h1v1H8zM7 8h1v1H7z"/>
    <path fill="#181616" d="M6 8h1v1H6zM5 8h1v1H5zM4 8h1v1H4z"/>
    <path fill="#E1E1E1" d="M3 8h1v1H3z"/>
    <path fill="#DEDE90" d="M2 8h1v1H2z"/>
    <path fill="#44440F" d="M1 8h1v1H1z"/>
    <path fill="#33330B" d="M14 7h1v1h-1z"/>
    <path fill="#E1E1E1" d="M13 7h1v1h-1z"/>
    <path fill="#3A53AC" d="M12 7h1v1h-1z"/>
    <path fill="#4968D8" d="M11 7h1v1h-1zM10 7h1v1h-1z"/>
    <path fill="#3A53AC" d="M9 7h1v1H9z"/>
    <path fill="#DEDE90" d="M8 7h1v1H8z"/>
    <path fill="#E1E1E1" d="M7 7h1v1H7z"/>
    <path fill="#4968D8" d="M6 7h1v1H6zM5 7h1v1H5z"/>
    <path fill="#3A53AC" d="M4 7h1v1H4zM3 7h1v1H3z"/>
    <path fill="#DEDE90" d="M2 7h1v1H2z"/>
    <path fill="#44440F" d="M1 7h1v1H1z"/>
    <path fill="#33330B" d="M14 6h1v1h-1z"/>
    <path fill="#E1E1E1" d="M13 6h1v1h-1z"/>
    <path fill="#3A53AC" d="M12 6h1v1h-1z"/>
    <path fill="#4968D8" d="M11 6h1v1h-1zM10 6h1v1h-1zM9 6h1v1H9z"/>
    <path fill="#FF0" d="M8 6h1v1H8zM7 6h1v1H7z"/>
    <path fill="#4968D8" d="M6 6h1v1H6zM5 6h1v1H5z"/>
    <path fill="#3A53AC" d="M4 6h1v1H4zM3 6h1v1H3z"/>
    <path fill="#DEDE90" d="M2 6h1v1H2z"/>
    <path fill="#44440F" d="M1 6h1v1H1z"/>
    <path fill="#33330B" d="M14 5h1v1h-1z"/>
    <path fill="#E1E1E1" d="M13 5h1v1h-1z"/>
    <path fill="#3A53AC" d="M12 5h1v1h-1z"/>
    <path fill="#4968D8" d="M11 5h1v1h-1zM10 5h1v1h-1z"/>
    <path fill="#FF0" d="M9 5h1v1H9zM8 5h1v1H8zM7 5h1v1H7zM6 5h1v1H6z"/>
    <path fill="#4968D8" d="M5 5h1v1H5z"/>
    <path fill="#3A53AC" d="M4 5h1v1H4zM3 5h1v1H3z"/>
    <path fill="#DEDE90" d="M2 5h1v1H2z"/>
    <path fill="#44440F" d="M1 5h1v1H1z"/>
    <path fill="#33330B" d="M13 4h1v1h-1z"/>
    <path fill="#DEDE90" d="M12 4h1v1h-1z"/>
    <path fill="#3A53AC" d="M11 4h1v1h-1z"/>
    <path fill="#4968D8" d="M10 4h1v1h-1z"/>
    <path fill="#FF0" d="M9 4h1v1H9zM8 4h1v1H8zM7 4h1v1H7zM6 4h1v1H6z"/>
    <path fill="#3A53AC" d="M5 4h1v1H5zM4 4h1v1H4z"/>
    <path fill="#DEDE90" d="M3 4h1v1H3z"/>
    <path fill="#44440F" d="M2 4h1v1H2zM13 3h1v1h-1z"/>
    <path fill="#E1E1E1" d="M12 3h1v1h-1z"/>
    <path fill="#3A53AC" d="M11 3h1v1h-1zM10 3h1v1h-1zM9 3h1v1H9z"/>
    <path fill="#CC0" d="M8 3h1v1H8zM7 3h1v1H7z"/>
    <path fill="#3A53AC" d="M6 3h1v1H6zM5 3h1v1H5zM4 3h1v1H4z"/>
    <path fill="#DEDE90" d="M3 3h1v1H3z"/>
    <path fill="#44440F" d="M2 3h1v1H2zM12 2h1v1h-1z"/>
    <path fill="#DEDE90" d="M11 2h1v1h-1zM10 2h1v1h-1z"/>
    <path fill="#3A53AC" d="M9 2h1v1H9zM8 2h1v1H8zM7 2h1v1H7zM6 2h1v1H6z"/>
    <path fill="#DEDE90" d="M5 2h1v1H5zM4 2h1v1H4z"/>
    <path fill="#44440F" d="M3 2h1v1H3zM11 1h1v1h-1zM10 1h1v1h-1z"/>
    <path fill="#DEDE90" d="M9 1h1v1H9zM8 1h1v1H8zM7 1h1v1H7zM6 1h1v1H6z"/>
    <path fill="#44440F" d="M5 1h1v1H5zM4 1h1v1H4zM9 0h1v1H9zM8 0h1v1H8zM7 0h1v1H7zM6 0h1v1H6z"/>
</svg>