<svg xmlns="http://www.w3.org/2000/svg" viewBox="0 0 16 16">
    <path fill="#0C3730" d="M10 14h1v1h-1zM9 14h1v1H9zM8 14h1v1H8zM7 14h1v1H7zM6 14h1v1H6zM5 14h1v1H5zM11 13h1v1h-1z"/>
    <path fill="#209581" d="M10 13h1v1h-1z"/>
    <path fill="#2CCDB1" d="M9 13h1v1H9zM8 13h1v1H8zM7 13h1v1H7zM6 13h1v1H6z"/>
    <path fill="#209581" d="M5 13h1v1H5z"/>
    <path fill="#0C3730" d="M4 13h1v1H4zM12 12h1v1h-1z"/>
    <path fill="#209581" d="M11 12h1v1h-1z"/>
    <path fill="#1B7B6B" d="M10 12h1v1h-1z"/>
    <path fill="#2CCDB1" d="M9 12h1v1H9zM8 12h1v1H8zM7 12h1v1H7zM6 12h1v1H6z"/>
    <path fill="#1B7B6B" d="M5 12h1v1H5z"/>
    <path fill="#30DBBD" d="M4 12h1v1H4z"/>
    <path fill="#0C3730" d="M3 12h1v1H3zM12 11h1v1h-1z"/>
    <path fill="#2CCDB1" d="M11 11h1v1h-1z"/>
    <path fill="#1B7B6B" d="M10 11h1v1h-1z"/>
    <path fill="#2CCDB1" d="M9 11h1v1H9zM8 11h1v1H8zM7 11h1v1H7zM6 11h1v1H6z"/>
    <path fill="#1B7B6B" d="M5 11h1v1H5z"/>
    <path fill="#4AEDD1" d="M4 11h1v1H4z"/>
    <path fill="#0C3730" d="M3 11h1v1H3zM13 10h1v1h-1z"/>
    <path fill="#209581" d="M12 10h1v1h-1z"/>
    <path fill="#2CCDB1" d="M11 10h1v1h-1zM10 10h1v1h-1z"/>
    <path fill="#209581" d="M9 10h1v1H9zM8 10h1v1H8zM7 10h1v1H7zM6 10h1v1H6z"/>
    <path fill="#4AEDD1" d="M5 10h1v1H5zM4 10h1v1H4z"/>
    <path fill="#FFF" d="M3 10h1v1H3z"/>
    <path fill="#0C3730" d="M2 10h1v1H2zM13 9h1v1h-1z"/>
    <path fill="#1B7B6B" d="M12 9h1v1h-1zM11 9h1v1h-1z"/>
    <path fill="#209581" d="M10 9h1v1h-1z"/>
    <path fill="#8CF4E2" d="M9 9h1v1H9zM8 9h1v1H8zM7 9h1v1H7zM6 9h1v1H6z"/>
    <path fill="#2CCDB1" d="M5 9h1v1H5z"/>
    <path fill="#D1FAF3" d="M4 9h1v1H4z"/>
    <path fill="#FFF" d="M3 9h1v1H3z"/>
    <path fill="#0C3730" d="M2 9h1v1H2zM13 8h1v1h-1z"/>
    <path fill="#30DBBD" d="M12 8h1v1h-1z"/>
    <path fill="#4AEDD1" d="M11 8h1v1h-1z"/>
    <path fill="#209581" d="M10 8h1v1h-1z"/>
    <path fill="#8CF4E2" d="M9 8h1v1H9zM8 8h1v1H8zM7 8h1v1H7zM6 8h1v1H6z"/>
    <path fill="#D1FAF3" d="M5 8h1v1H5z"/>
    <path fill="#A2F6E7" d="M4 8h1v1H4z"/>
    <path fill="#FFF" d="M3 8h1v1H3z"/>
    <path fill="#0C3730" d="M2 8h1v1H2zM12 7h1v1h-1z"/>
    <path fill="#4AEDD1" d="M11 7h1v1h-1z"/>
    <path fill="#209581" d="M10 7h1v1h-1z"/>
    <path fill="#8CF4E2" d="M9 7h1v1H9zM8 7h1v1H8zM7 7h1v1H7zM6 7h1v1H6z"/>
    <path fill="#FFF" d="M5 7h1v1H5z"/>
    <path fill="#A2F6E7" d="M4 7h1v1H4z"/>
    <path fill="#FFF" d="M3 7h1v1H3z"/>
    <path fill="#0C3730" d="M2 7h1v1H2zM12 6h1v1h-1z"/>
    <path fill="#30DBBD" d="M11 6h1v1h-1z"/>
    <path fill="#4AEDD1" d="M10 6h1v1h-1z"/>
    <path fill="#D1FAF3" d="M9 6h1v1H9zM8 6h1v1H8zM7 6h1v1H7z"/>
    <path fill="#FFF" d="M6 6h1v1H6z"/>
    <path fill="#A2F6E7" d="M5 6h1v1H5z"/>
    <path fill="#FFF" d="M4 6h1v1H4z"/>
    <path fill="#0C3730" d="M3 6h1v1H3zM11 5h1v1h-1z"/>
    <path fill="#4AEDD1" d="M10 5h1v1h-1zM9 5h1v1H9z"/>
    <path fill="#FFF" d="M8 5h1v1H8z"/>
    <path fill="#A2F6E7" d="M7 5h1v1H7zM6 5h1v1H6z"/>
    <path fill="#D1FAF3" d="M5 5h1v1H5z"/>
    <path fill="#FFF" d="M4 5h1v1H4z"/>
    <path fill="#0C3730" d="M3 5h1v1H3zM11 4h1v1h-1z"/>
    <path fill="#30DBBD" d="M10 4h1v1h-1z"/>
    <path fill="#D1FAF3" d="M9 4h1v1H9z"/>
    <path fill="#A2F6E7" d="M8 4h1v1H8zM7 4h1v1H7zM6 4h1v1H6z"/>
    <path fill="#FFF" d="M5 4h1v1H5z"/>
    <path fill="#0C3730" d="M4 4h1v1H4zM10 3h1v1h-1z"/>
    <path fill="#FFF" d="M9 3h1v1H9zM8 3h1v1H8zM7 3h1v1H7zM6 3h1v1H6z"/>
    <path fill="#0C3730" d="M5 3h1v1H5zM9 2h1v1H9zM8 2h1v1H8zM7 2h1v1H7zM6 2h1v1H6z"/>
</svg>