<svg xmlns="http://www.w3.org/2000/svg" viewBox="0 0 16 16">
    <path fill="#002D00" d="M9 14h1v1H9z"/>
    <path fill="#003900" d="M8 14h1v1H8zM7 14h1v1H7zM10 13h1v1h-1z"/>
    <path fill="#009324" d="M9 13h1v1H9z"/>
    <path fill="#00A033" d="M8 13h1v1H8zM7 13h1v1H7z"/>
    <path fill="#003900" d="M6 13h1v1H6zM11 12h1v1h-1z"/>
    <path fill="#007E19" d="M10 12h1v1h-1z"/>
    <path fill="#007B18" d="M9 12h1v1H9z"/>
    <path fill="#00B038" d="M8 12h1v1H8z"/>
    <path fill="#00A835" d="M7 12h1v1H7z"/>
    <path fill="#00B033" d="M6 12h1v1H6z"/>
    <path fill="#005300" d="M5 12h1v1H5z"/>
    <path fill="#003900" d="M12 11h1v1h-1z"/>
    <path fill="#007E19" d="M11 11h1v1h-1z"/>
    <path fill="#007B18" d="M10 11h1v1h-1z"/>
    <path fill="#009529" d="M9 11h1v1H9z"/>
    <path fill="#00A835" d="M8 11h1v1H8z"/>
    <path fill="#00B038" d="M7 11h1v1H7z"/>
    <path fill="#1BD662" d="M6 11h1v1H6z"/>
    <path fill="#00B033" d="M5 11h1v1H5z"/>
    <path fill="#005300" d="M4 11h1v1H4z"/>
    <path fill="#003900" d="M13 10h1v1h-1z"/>
    <path fill="#00871D" d="M12 10h1v1h-1z"/>
    <path fill="#007B18" d="M11 10h1v1h-1z"/>
    <path fill="#009529" d="M10 10h1v1h-1z"/>
    <path fill="#62F59A" d="M9 10h1v1H9z"/>
    <path fill="#58F493" d="M8 10h1v1H8z"/>
    <path fill="#63F49A" d="M7 10h1v1H7z"/>
    <path fill="#41F384" d="M6 10h1v1H6z"/>
    <path fill="#1FDC66" d="M5 10h1v1H5z"/>
    <path fill="#72F0A2" d="M4 10h1v1H4z"/>
    <path fill="#005300" d="M3 10h1v1H3z"/>
    <path fill="#003900" d="M13 9h1v1h-1z"/>
    <path fill="#00861F" d="M12 9h1v1h-1z"/>
    <path fill="#009E30" d="M11 9h1v1h-1z"/>
    <path fill="#00B038" d="M10 9h1v1h-1z"/>
    <path fill="#58F493" d="M9 9h1v1H9z"/>
    <path fill="#41F384" d="M8 9h1v1H8z"/>
    <path fill="#82F6AD" d="M7 9h1v1H7z"/>
    <path fill="#41F384" d="M6 9h1v1H6zM5 9h1v1H5z"/>
    <path fill="#72F0A2" d="M4 9h1v1H4z"/>
    <path fill="#005300" d="M3 9h1v1H3z"/>
    <path fill="#003900" d="M13 8h1v1h-1z"/>
    <path fill="#009126" d="M12 8h1v1h-1z"/>
    <path fill="#009E30" d="M11 8h1v1h-1z"/>
    <path fill="#00B038" d="M10 8h1v1h-1z"/>
    <path fill="#41F384" d="M9 8h1v1H9z"/>
    <path fill="#82F6AD" d="M8 8h1v1H8z"/>
    <path fill="#B3F9CD" d="M7 8h1v1H7z"/>
    <path fill="#41F384" d="M6 8h1v1H6zM5 8h1v1H5z"/>
    <path fill="#AFFDCD" d="M4 8h1v1H4z"/>
    <path fill="#005300" d="M3 8h1v1H3z"/>
    <path fill="#003900" d="M13 7h1v1h-1z"/>
    <path fill="#00861F" d="M12 7h1v1h-1z"/>
    <path fill="#00A633" d="M11 7h1v1h-1z"/>
    <path fill="#00B038" d="M10 7h1v1h-1z"/>
    <path fill="#41F384" d="M9 7h1v1H9z"/>
    <path fill="#82F6AD" d="M8 7h1v1H8z"/>
    <path fill="#BAFFD4" d="M7 7h1v1H7z"/>
    <path fill="#41F384" d="M6 7h1v1H6zM5 7h1v1H5z"/>
    <path fill="#AFFDCD" d="M4 7h1v1H4z"/>
    <path fill="#005300" d="M3 7h1v1H3z"/>
    <path fill="#003900" d="M13 6h1v1h-1z"/>
    <path fill="#009328" d="M12 6h1v1h-1z"/>
    <path fill="#009E30" d="M11 6h1v1h-1z"/>
    <path fill="#00A330" d="M10 6h1v1h-1z"/>
    <path fill="#63F49A" d="M9 6h1v1H9z"/>
    <path fill="#B3F9CD" d="M8 6h1v1H8z"/>
    <path fill="#BAFFD4" d="M7 6h1v1H7z"/>
    <path fill="#67F59D" d="M6 6h1v1H6z"/>
    <path fill="#41F384" d="M5 6h1v1H5z"/>
    <path fill="#B6FFD0" d="M4 6h1v1H4z"/>
    <path fill="#005300" d="M3 6h1v1H3z"/>
    <path fill="#003900" d="M13 5h1v1h-1z"/>
    <path fill="#00871D" d="M12 5h1v1h-1z"/>
    <path fill="#009F2A" d="M11 5h1v1h-1z"/>
    <path fill="#009529" d="M10 5h1v1h-1z"/>
    <path fill="#00B038" d="M9 5h1v1H9z"/>
    <path fill="#17DD62" d="M8 5h1v1H8z"/>
    <path fill="#58E78E" d="M7 5h1v1H7z"/>
    <path fill="#B3F9CD" d="M6 5h1v1H6z"/>
    <path fill="#82F6AD" d="M5 5h1v1H5z"/>
    <path fill="#DBFFEB" d="M4 5h1v1H4z"/>
    <path fill="#005300" d="M3 5h1v1H3z"/>
    <path fill="#003900" d="M12 4h1v1h-1z"/>
    <path fill="#009F2A" d="M11 4h1v1h-1z"/>
    <path fill="#007715" d="M10 4h1v1h-1z"/>
    <path fill="#00BB46" d="M9 4h1v1H9z"/>
    <path fill="#17DD62" d="M8 4h1v1H8z"/>
    <path fill="#B3F9CD" d="M7 4h1v1H7z"/>
    <path fill="#82F6AD" d="M6 4h1v1H6z"/>
    <path fill="#B6FFD0" d="M5 4h1v1H5z"/>
    <path fill="#005300" d="M4 4h1v1H4zM11 3h1v1h-1z"/>
    <path fill="#00AA2C" d="M10 3h1v1h-1z"/>
    <path fill="#17DD62" d="M9 3h1v1H9zM8 3h1v1H8z"/>
    <path fill="#82F6AD" d="M7 3h1v1H7z"/>
    <path fill="#B6FFD0" d="M6 3h1v1H6z"/>
    <path fill="#005300" d="M5 3h1v1H5zM10 2h1v1h-1z"/>
    <path fill="#B6FFD0" d="M9 2h1v1H9zM8 2h1v1H8z"/>
    <path fill="#D9FFEB" d="M7 2h1v1H7z"/>
    <path fill="#005300" d="M6 2h1v1H6zM9 1h1v1H9zM8 1h1v1H8zM7 1h1v1H7z"/>
</svg>