<svg xmlns="http://www.w3.org/2000/svg" viewBox="0 0 16 16">
    <path fill="#3C3D29" d="M2 15h1v1H2zM1 15h1v1H1zM0 15h1v1H0zM2 14h1v1H2z"/>
    <path fill="#9C9E45" d="M1 14h1v1H1z"/>
    <path fill="#3C3D29" d="M0 14h1v1H0zM9 13h1v1H9zM8 13h1v1H8z"/>
    <path fill="#281E0B" d="M3 13h1v1H3z"/>
    <path fill="#684E1E" d="M2 13h1v1H2z"/>
    <path fill="#3C3D29" d="M1 13h1v1H1zM0 13h1v1H0zM9 12h1v1H9z"/>
    <path fill="#7C7E3E" d="M8 12h1v1H8z"/>
    <path fill="#3C3D29" d="M7 12h1v1H7zM6 12h1v1H6z"/>
    <path fill="#281E0B" d="M4 12h1v1H4z"/>
    <path fill="#896727" d="M3 12h1v1H3z"/>
    <path fill="#493615" d="M2 12h1v1H2z"/>
    <path fill="#3C3D29" d="M8 11h1v1H8z"/>
    <path fill="#7C7E3E" d="M7 11h1v1H7z"/>
    <path fill="#9C9E45" d="M6 11h1v1H6z"/>
    <path fill="#3C3D29" d="M5 11h1v1H5z"/>
    <path fill="#684E1E" d="M4 11h1v1H4z"/>
    <path fill="#493615" d="M3 11h1v1H3z"/>
    <path fill="#3C3D29" d="M7 10h1v1H7zM6 10h1v1H6z"/>
    <path fill="#9C9E45" d="M5 10h1v1H5z"/>
    <path fill="#3C3D29" d="M4 10h1v1H4z"/>
    <path fill="#3D3D24" d="M8 9h1v1H8z"/>
    <path fill="#EAEE57" d="M7 9h1v1H7z"/>
    <path fill="#CDD050" d="M6 9h1v1H6z"/>
    <path fill="#3C3D29" d="M5 9h1v1H5z"/>
    <path fill="#9C9E45" d="M4 9h1v1H4z"/>
    <path fill="#3C3D29" d="M3 9h1v1H3z"/>
    <path fill="#3D3D24" d="M9 8h1v1H9z"/>
    <path fill="#EAEE57" d="M8 8h1v1H8z"/>
    <path fill="#CDD050" d="M7 8h1v1H7z"/>
    <path fill="#EAEE57" d="M6 8h1v1H6z"/>
    <path fill="#3C3D29" d="M5 8h1v1H5z"/>
    <path fill="#9C9E45" d="M4 8h1v1H4z"/>
    <path fill="#3C3D29" d="M3 8h1v1H3z"/>
    <path fill="#3D3D24" d="M10 7h1v1h-1z"/>
    <path fill="#EAEE57" d="M9 7h1v1H9z"/>
    <path fill="#CDD050" d="M8 7h1v1H8z"/>
    <path fill="#EAEE57" d="M7 7h1v1H7z"/>
    <path fill="#3D3D24" d="M6 7h1v1H6z"/>
    <path fill="#3C3D29" d="M4 7h1v1H4z"/>
    <path fill="#7C7E3E" d="M3 7h1v1H3z"/>
    <path fill="#3C3D29" d="M2 7h1v1H2z"/>
    <path fill="#3D3D24" d="M11 6h1v1h-1z"/>
    <path fill="#EAEE57" d="M10 6h1v1h-1z"/>
    <path fill="#CDD050" d="M9 6h1v1H9z"/>
    <path fill="#EAEE57" d="M8 6h1v1H8z"/>
    <path fill="#3D3D24" d="M7 6h1v1H7z"/>
    <path fill="#3C3D29" d="M3 6h1v1H3zM2 6h1v1H2z"/>
    <path fill="#3D3D24" d="M12 5h1v1h-1z"/>
    <path fill="#EAEE57" d="M11 5h1v1h-1z"/>
    <path fill="#CDD050" d="M10 5h1v1h-1z"/>
    <path fill="#EAEE57" d="M9 5h1v1H9z"/>
    <path fill="#3D3D24" d="M8 5h1v1H8zM13 4h1v1h-1z"/>
    <path fill="#EAEE57" d="M12 4h1v1h-1z"/>
    <path fill="#CDD050" d="M11 4h1v1h-1z"/>
    <path fill="#EAEE57" d="M10 4h1v1h-1z"/>
    <path fill="#3D3D24" d="M9 4h1v1H9zM14 3h1v1h-1z"/>
    <path fill="#EAEE57" d="M13 3h1v1h-1z"/>
    <path fill="#CDD050" d="M12 3h1v1h-1z"/>
    <path fill="#EAEE57" d="M11 3h1v1h-1z"/>
    <path fill="#3D3D24" d="M10 3h1v1h-1zM15 2h1v1h-1z"/>
    <path fill="#EAEE57" d="M14 2h1v1h-1z"/>
    <path fill="#CDD050" d="M13 2h1v1h-1z"/>
    <path fill="#EAEE57" d="M12 2h1v1h-1z"/>
    <path fill="#3D3D24" d="M11 2h1v1h-1zM15 1h1v1h-1z"/>
    <path fill="#CDD050" d="M14 1h1v1h-1z"/>
    <path fill="#EAEE57" d="M13 1h1v1h-1z"/>
    <path fill="#3D3D24" d="M12 1h1v1h-1zM15 0h1v1h-1zM14 0h1v1h-1zM13 0h1v1h-1z"/>
</svg>